<svg width="14" height="14" viewBox="0 0 14 14" fill="none" xmlns="http://www.w3.org/2000/svg">
<path d="M13.2222 9.72222C12.2889 9.72222 11.2778 9.56667 10.4222 9.25555C10.3444 9.25555 10.2667 9.25555 10.1889 9.25555C9.95556 9.25555 9.8 9.33333 9.64444 9.48889L7.93333 11.2C5.75556 10.0333 3.88889 8.24444 2.8 6.06667L4.51111 4.35556C4.74444 4.12222 4.82222 3.81111 4.66667 3.57778C4.43333 2.72222 4.27778 1.71111 4.27778 0.777778C4.27778 0.388889 3.88889 0 3.5 0H0.777778C0.388889 0 0 0.388889 0 0.777778C0 8.08889 5.91111 14 13.2222 14C13.6111 14 14 13.6111 14 13.2222V10.5C14 10.1111 13.6111 9.72222 13.2222 9.72222ZM1.55556 1.55556H2.72222C2.8 2.25556 2.95556 2.95556 3.11111 3.57778L2.17778 4.51111C1.86667 3.57778 1.63333 2.56667 1.55556 1.55556ZM12.4444 12.4444C11.4333 12.3667 10.4222 12.1333 9.48889 11.8222L10.4222 10.8889C11.0444 11.0444 11.7444 11.2 12.4444 11.2V12.4444Z" fill="#DBE9FE"/>
</svg>
